<?xml version="1.0" encoding="utf-8"?>
<svg xmlns="http://www.w3.org/2000/svg" viewBox="0 0 48 48" width="144" height="144">
  <path d="M24.048828 2 A 1.50015 1.50015 0 0 0 22.998047 2.3847656C22.998047 2.3847656 15.490168 9 6.5 9 A 1.50015 1.50015 0 0 0 5 10.5L5 22.759766C5 29.437814 8.0894135 40.426402 23.417969 46.882812 A 1.50015 1.50015 0 0 0 24.582031 46.882812C39.910586 40.426403 43 29.437814 43 22.759766L43 10.5 A 1.50015 1.50015 0 0 0 41.5 9C32.509832 9 25.001953 2.3847656 25.001953 2.3847656 A 1.50015 1.50015 0 0 0 24.048828 2 z M 24 5.4277344C26.062966 7.0863651 32.111257 11.337189 40 11.875L40 22.759766C40 28.502023 37.793444 37.765684 24 43.826172C10.206556 37.765684 8 28.502023 8 22.759766L8 11.875C15.888743 11.337189 21.937034 7.0863651 24 5.4277344 z M 24 12C22.125 12 20.528815 12.757133 19.503906 13.910156C18.478997 15.063179 18 16.541667 18 18C18 19.458333 18.478997 20.936821 19.503906 22.089844C20.528815 23.242867 22.125 24 24 24C25.875 24 27.471185 23.242867 28.496094 22.089844C29.521003 20.936821 30 19.458333 30 18C30 16.541667 29.521003 15.063179 28.496094 13.910156C27.471185 12.757133 25.875 12 24 12 z M 24 15C25.124999 15 25.778816 15.367867 26.253906 15.902344C26.728997 16.436821 27 17.208333 27 18C27 18.791667 26.728997 19.563179 26.253906 20.097656C25.778816 20.632133 25.124999 21 24 21C22.875001 21 22.221184 20.632133 21.746094 20.097656C21.271003 19.563179 21 18.791667 21 18C21 17.208333 21.271003 16.436821 21.746094 15.902344C22.221184 15.367867 22.875001 15 24 15 z M 18.5 26C16.581818 26 15 27.581818 15 29.5L15 30.5C15 30.957647 15.05387 31.394774 15.152344 31.802734 A 1.50015 1.50015 0 0 0 15.554688 32.515625C17.721713 34.659841 20.71375 36 24 36C27.28625 36 30.278287 34.659841 32.445312 32.515625 A 1.50015 1.50015 0 0 0 32.847656 31.802734C32.946129 31.394774 33 30.957647 33 30.5L33 29.5C33 27.581818 31.418182 26 29.5 26L18.5 26 z M 18.5 29L29.5 29C29.781818 29 30 29.218182 30 29.5L30 30.5C30 30.54361 29.988288 30.575109 29.986328 30.617188C28.386149 32.061892 26.322236 33 24 33C21.677764 33 19.613849 32.061892 18.013672 30.617188C18.011714 30.575114 18 30.54361 18 30.5L18 29.5C18 29.218182 18.218182 29 18.5 29 z" fill="#333333" />
</svg>