<svg xmlns="http://www.w3.org/2000/svg" viewBox="0 0 48 48">
    <path d="M9.5 9C5.9280619 9 3 11.928062 3 15.5L3 32.5C3 36.071938 5.9280619 39 9.5 39L38.5 39C42.071938 39 45 36.071938 45 32.5L45 15.5C45 11.928062 42.071938 9 38.5 9L9.5 9 z M 9.5 12L38.5 12C40.450062 12 42 13.549938 42 15.5L42 32.5C42 34.450062 40.450062 36 38.5 36L9.5 36C7.5499381 36 6 34.450062 6 32.5L6 15.5C6 13.549938 7.5499381 12 9.5 12 z M 11 17C9.895 17 9 17.895 9 19L9 20.714844C9 21.819844 9.895 22.714844 11 22.714844L15 22.714844C16.105 22.714844 17 21.819844 17 20.714844L17 19C17 17.895 16.105 17 15 17L11 17 z M 24.5 17 A 1.50015 1.50015 0 1 0 24.5 20L37.5 20 A 1.50015 1.50015 0 1 0 37.5 17L24.5 17 z M 10.5 28 A 1.50015 1.50015 0 1 0 10.5 31L13.5 31 A 1.50015 1.50015 0 1 0 13.5 28L10.5 28 z M 18.5 28 A 1.50015 1.50015 0 1 0 18.5 31L21.5 31 A 1.50015 1.50015 0 1 0 21.5 28L18.5 28 z M 26.5 28 A 1.50015 1.50015 0 1 0 26.5 31L29.5 31 A 1.50015 1.50015 0 1 0 29.5 28L26.5 28 z M 34.5 28 A 1.50015 1.50015 0 1 0 34.5 31L37.5 31 A 1.50015 1.50015 0 1 0 37.5 28L34.5 28 z"
          fill="#FFFFFF"/>
</svg>