<?xml version="1.0" encoding="utf-8"?>
<svg xmlns="http://www.w3.org/2000/svg" viewBox="0 0 48 48" width="20" height="20">
  <path d="M17 2C11.494917 2 7 6.494921 7 12C7 17.505079 11.494917 22 17 22C22.505083 22 27 17.505079 27 12C27 6.494921 22.505083 2 17 2 z M 17 5C20.883764 5 24 8.1162385 24 12C24 15.883762 20.883764 19 17 19C13.116236 19 10 15.883762 10 12C10 8.1162385 13.116236 5 17 5 z M 35 24C28.925 24 24 28.925 24 35C24 41.075 28.925 46 35 46C41.075 46 46 41.075 46 35C46 28.925 41.075 24 35 24 z M 6.2226562 26C4.1696563 26 2.5 27.784516 2.5 29.978516L2.5 31.5C2.5 34.781 4.1953906 37.632344 7.2753906 39.527344C9.8663906 41.122344 13.32 42 17 42C19.19 42 21.431516 41.675766 23.478516 41.009766C23.018516 40.128766 22.664062 39.186172 22.414062 38.201172C20.717062 38.735172 18.837 39 17 39C11.461 39 5.5 36.653 5.5 31.5L5.5 29.978516C5.5 29.447516 5.8306562 29 6.2226562 29L23.474609 29C24.049609 27.897 24.778812 26.889 25.632812 26L6.2226562 26 z M 30 29C30.25575 29 30.511531 29.097469 30.707031 29.292969L35 33.585938L39.292969 29.292969C39.683969 28.901969 40.316031 28.901969 40.707031 29.292969C41.098031 29.683969 41.098031 30.316031 40.707031 30.707031L36.414062 35L40.707031 39.292969C41.098031 39.683969 41.098031 40.316031 40.707031 40.707031C40.512031 40.902031 40.256 41 40 41C39.744 41 39.487969 40.902031 39.292969 40.707031L35 36.414062L30.707031 40.707031C30.512031 40.902031 30.256 41 30 41C29.744 41 29.487969 40.902031 29.292969 40.707031C28.901969 40.316031 28.901969 39.683969 29.292969 39.292969L33.585938 35L29.292969 30.707031C28.901969 30.316031 28.901969 29.683969 29.292969 29.292969C29.488469 29.097469 29.74425 29 30 29 z" fill="#FFFFFF" />
</svg>