<?xml version="1.0" encoding="utf-8"?>
<svg xmlns="http://www.w3.org/2000/svg" viewBox="0 0 48 48">
    <path d="M24 4C18.494917 4 14 8.494921 14 14C14 19.505079 18.494917 24 24 24C29.505083 24 34 19.505079 34 14C34 8.494921 29.505083 4 24 4 z M 24 7C27.883764 7 31 10.116238 31 14C31 17.883762 27.883764 21 24 21C20.116236 21 17 17.883762 17 14C17 10.116238 20.116236 7 24 7 z M 22.75 10C22.273 10 21.862531 10.336688 21.769531 10.804688L21.269531 13.304688C21.210531 13.598688 21.286562 13.903766 21.476562 14.134766C21.666562 14.366766 21.95 14.5 22.25 14.5L24.25 14.5C24.664 14.5 25 14.836 25 15.25C25 15.765 24.481 16 24 16C23.115 16 22.583922 15.685156 22.544922 15.660156C22.085922 15.363156 21.472969 15.489313 21.167969 15.945312C20.861969 16.405313 20.986313 17.026031 21.445312 17.332031C21.548313 17.400031 22.491 18 24 18C25.71 18 27 16.818 27 15.25C27 13.733 25.767 12.5 24.25 12.5L23.470703 12.5L23.570312 12L25.5 12C26.052 12 26.5 11.552 26.5 11C26.5 10.448 26.052 10 25.5 10L22.75 10 z M 2.5 13 A 1.50015 1.50015 0 1 0 2.5 16L5.5 16C5.7950452 16 6 16.204955 6 16.5L6 38.5C6 41.519774 8.4802259 44 11.5 44L36.5 44C39.519774 44 42 41.519774 42 38.5L42 16.5C42 16.204955 42.204955 16 42.5 16L45 16 A 1.50015 1.50015 0 1 0 45 13L42.5 13C40.585045 13 39 14.585045 39 16.5L39 38.5C39 39.898226 37.898226 41 36.5 41L11.5 41C10.101774 41 9 39.898226 9 38.5L9 16.5C9 14.585045 7.4149548 13 5.5 13L2.5 13 z M 18.402344 27.980469 A 1.50015 1.50015 0 0 0 17.394531 30.513672L22.894531 36.513672 A 1.50015 1.50015 0 0 0 25.105469 36.513672L30.605469 30.513672 A 1.50015 1.50015 0 0 0 29.554688 27.984375 A 1.50015 1.50015 0 0 0 28.394531 28.486328L24 33.28125L19.605469 28.486328 A 1.50015 1.50015 0 0 0 18.402344 27.980469 z"
          fill="#FFFFFF"/>
</svg>