<?xml version="1.0" encoding="utf-8"?>
<svg xmlns="http://www.w3.org/2000/svg" viewBox="0 0 48 48" width="144" height="144">
  <path d="M7.5 5C6.1364058 5 5 6.1364058 5 7.5L5 13.5C5 14.863594 6.1364058 16 7.5 16L13.5 16C14.863594 16 16 14.863594 16 13.5L16 7.5C16 6.1364058 14.863594 5 13.5 5L7.5 5 z M 8 8L13 8L13 13L8 13L8 8 z M 20.5 9 A 1.50015 1.50015 0 1 0 20.5 12L41.5 12 A 1.50015 1.50015 0 1 0 41.5 9L20.5 9 z M 7.5 18.5C6.1364058 18.5 5 19.636406 5 21L5 27C5 28.363594 6.1364058 29.5 7.5 29.5L13.5 29.5C14.863594 29.5 16 28.363594 16 27L16 21C16 19.636406 14.863594 18.5 13.5 18.5L7.5 18.5 z M 8 21.5L13 21.5L13 26.5L8 26.5L8 21.5 z M 20.5 22.5 A 1.50015 1.50015 0 1 0 20.5 25.5L41.5 25.5 A 1.50015 1.50015 0 1 0 41.5 22.5L20.5 22.5 z M 7.5 32C6.1364058 32 5 33.136406 5 34.5L5 40.5C5 41.863594 6.1364058 43 7.5 43L13.5 43C14.863594 43 16 41.863594 16 40.5L16 34.5C16 33.136406 14.863594 32 13.5 32L7.5 32 z M 8 35L13 35L13 40L8 40L8 35 z M 20.5 36 A 1.50015 1.50015 0 1 0 20.5 39L41.5 39 A 1.50015 1.50015 0 1 0 41.5 36L20.5 36 z" fill="#1D1D1D" />
</svg>