<?xml version="1.0" encoding="utf-8"?>
<svg xmlns="http://www.w3.org/2000/svg" viewBox="0 0 48 48" width="20" height="20">
  <path d="M24 4C22.125 4 20.528815 4.7571334 19.503906 5.9101562C18.478997 7.0631791 18 8.5416668 18 10C18 11.04642 18.34337 12.060382 18.861328 13L13.595703 13C11.096894 13 8.8980624 14.700577 8.2714844 17.119141L3.3457031 36.119141C2.4516112 39.566226 5.1087109 43 8.6699219 43L39.513672 43C42.998815 43 45.638588 39.708311 44.882812 36.306641L40.660156 17.306641C40.102422 14.798893 37.860416 13 35.291016 13L29.138672 13C29.65663 12.060382 30 11.04642 30 10C30 8.5416668 29.521003 7.0631791 28.496094 5.9101562C27.471185 4.7571334 25.875 4 24 4 z M 24 7C25.124999 7 25.778816 7.3678666 26.253906 7.9023438C26.728997 8.4368209 27 9.2083332 27 10C27 10.791667 26.728997 11.563179 26.253906 12.097656C25.778816 12.632133 25.124999 13 24 13C22.875001 13 22.221184 12.632133 21.746094 12.097656C21.271003 11.563179 21 10.791667 21 10C21 9.2083332 21.271003 8.4368209 21.746094 7.9023438C22.221184 7.3678666 22.875001 7 24 7 z M 13.595703 16L24 16L35.291016 16C36.471616 16 37.476156 16.804779 37.732422 17.957031L41.953125 36.957031C42.307349 38.55136 41.146529 40 39.513672 40L8.6699219 40C6.9971328 40 5.8281388 38.491962 6.2480469 36.873047L11.175781 17.873047C11.463203 16.763611 12.448512 16 13.595703 16 z M 23.976562 17.978516 A 1.50015 1.50015 0 0 0 22.5 19.5L22.5 20.226562C20.50407 20.796741 19 22.56853 19 24.732422L19 24.734375C19 27.348199 21.151754 29.5 23.765625 29.5L25.234375 29.5C26.226504 29.5 27 30.273496 27 31.265625C27 32.252155 26.235274 33.021038 25.248047 33.029297L23.408203 33.044922C22.762885 33.044922 22.242497 32.626351 22.064453 32.060547 A 1.50015 1.50015 0 1 0 19.203125 32.960938C19.66952 34.443086 20.979871 35.394155 22.5 35.744141L22.5 36.5 A 1.50015 1.50015 0 1 0 25.5 36.5L25.5 35.982422C27.988983 35.836086 30 33.784959 30 31.265625C30 28.651754 27.848246 26.5 25.234375 26.5L23.765625 26.5C22.773496 26.5 22 25.726504 22 24.734375L22 24.732422C22 23.750223 22.757851 22.981106 23.740234 22.966797L24.564453 22.955078C25.213384 22.955078 25.737616 23.378758 25.912109 23.949219 A 1.50015 1.50015 0 1 0 28.78125 23.072266C28.325873 21.583534 27.01795 20.628213 25.5 20.267578L25.5 19.5 A 1.50015 1.50015 0 0 0 23.976562 17.978516 z" fill="#CCC" />
</svg>