<?xml version="1.0" encoding="utf-8"?>
<svg xmlns="http://www.w3.org/2000/svg" viewBox="0 0 64 64" width="40" height="40">
  <path d="M32 1.0488281C32 1.0488281 30.720187 3.1818438 29.867188 3.7148438C30.720188 4.2478437 30.933594 5.8457031 30.933594 5.8457031L33.066406 5.8457031C33.066406 5.8457031 33.279812 4.2478437 34.132812 3.7148438C33.279813 3.1818438 32 1.0488281 32 1.0488281 z M 24.328125 2.140625C24.328125 2.140625 23.192953 4.3524062 22.376953 4.9414062C23.262953 5.4164062 23.582031 6.9980469 23.582031 6.9980469L25.710938 6.8574219C25.710938 6.8574219 25.817813 5.2462031 26.632812 4.6582031C25.746812 4.1812031 24.328125 2.140625 24.328125 2.140625 z M 39.671875 2.140625C39.671875 2.140625 38.253188 4.1832031 37.367188 4.6582031C38.183188 5.2462031 38.289062 6.8554688 38.289062 6.8554688L40.417969 6.9960938C40.417969 6.9960938 40.737047 5.4144531 41.623047 4.9394531C40.807047 4.3514531 39.671875 2.140625 39.671875 2.140625 z M 16.541016 4.2460938L17.074219 8.5097656L17.070312 8.5097656C17.070312 8.5097656 17.460234 13.060469 17.740234 16.980469L46.330078 16.019531C46.600078 12.349531 46.929688 8.5097656 46.929688 8.5097656L46.925781 8.5097656L47.458984 4.2460938C47.458984 4.2460938 45.113719 5.8459062 44.261719 6.3789062C45.114719 6.9119063 45.326172 8.5117188 45.326172 8.5117188L45.330078 8.5117188C45.328766 8.5170529 44.787709 10.710597 42.390625 11.779297C39.730625 10.179297 40.419922 7 40.419922 7L38.289062 6.859375C38.289062 6.859375 38.130938 9.6402344 35.460938 11.240234C32.800938 9.6402344 33.070312 5.8496094 33.070312 5.8496094L30.929688 5.8496094C30.929688 5.8496094 31.199063 9.6402344 28.539062 11.240234C25.869062 9.6402344 25.710938 6.859375 25.710938 6.859375L23.580078 7C23.580078 7 24.269375 10.179297 21.609375 11.779297C19.212291 10.710597 18.671234 8.5170529 18.669922 8.5117188L18.673828 8.5117188C18.673828 8.5117188 18.885281 6.9119063 19.738281 6.3789062C18.886281 5.8459062 16.541016 4.2460938 16.541016 4.2460938 z M 17.869141 19C17.949141 20.29 18 21.37 18 22L18.017578 22C18.013504 22.167785 18 22.329993 18 22.5L18 26.019531C17.59 26.669531 17 27.88 17 29.5C17 31.98 18.500703 33.700859 19.220703 34.380859C20.020703 36.440859 21.409219 38.449219 22.949219 40.199219L22.507812 46.611328L19.810547 47.439453C19.980547 47.639453 20.169375 47.829531 20.359375 48.019531C20.987936 48.648092 21.675249 49.217211 22.398438 49.732422L21.082031 51.490234C20.283404 50.889215 19.526734 50.233454 18.839844 49.509766C18.419844 49.059766 18.010859 48.599375 17.630859 48.109375L5 52L5.4394531 54.660156C5.7594531 56.590156 7.430625 58 9.390625 58L54.609375 58C56.569375 58 58.240547 56.590156 58.560547 54.660156L59 52L46.789062 48.240234C46.369062 48.790234 45.899687 49.279531 45.429688 49.769531C44.70666 50.492559 43.922162 51.140301 43.095703 51.730469L41.419922 49.494141C42.119307 48.967501 42.781773 48.389733 43.380859 47.759766C43.510859 47.609766 43.639297 47.470312 43.779297 47.320312L41.496094 46.615234L41.050781 40.199219C42.590781 38.449219 43.979297 36.440859 44.779297 34.380859C45.499297 33.700859 47 31.98 47 29.5C47 27.88 46.41 26.669531 46 26.019531L46 22.5C46 22.329993 45.986496 22.167785 45.982422 22L46 22C46 21.37 46.050859 20.29 46.130859 19L17.869141 19 z M 21.019531 22L42.980469 22C42.984913 22.166658 43 22.333342 43 22.5L43 26.5L43.009766 27.050781L43.349609 27.460938C43.379609 27.500937 44 28.28 44 29.5C44 31.18 42.599844 32.300547 42.589844 32.310547L42.230469 32.580078L42.080078 33.009766C40.330078 38.049766 34.510469 42.32 33.230469 43L30.769531 43C29.489531 42.32 23.669922 38.049766 21.919922 33.009766L21.769531 32.580078L21.410156 32.310547C21.390156 32.290547 20 31.19 20 29.5C20 28.28 20.620625 27.500469 20.640625 27.480469L21 27.060547L21 22.5C21 22.333342 21.015087 22.166658 21.019531 22 z M 25.759766 43.009766C27.859766 44.839766 29.78 46 30.5 46L33.5 46C34.22 46 36.140234 44.839766 38.240234 43.009766L38.505859 46.900391C37.350846 47.784434 35.189154 49 32 49C28.808578 49 26.646575 47.78263 25.492188 46.898438L25.759766 43.009766 z M 38.857422 51.078125L40.515625 53.291016C39.36239 53.864475 38.147532 54.324987 36.900391 54.660156C35.781067 54.945201 34.64119 55.107579 33.5 55.1875L33.5 52.634766C34.419075 52.536902 35.328711 52.383851 36.210938 52.130859C37.124514 51.855443 38.007089 51.500971 38.857422 51.078125 z M 25.011719 51.25C25.8997 51.660407 26.818729 51.997693 27.759766 52.25C28.65641 52.47741 29.574854 52.609596 30.5 52.681641L30.5 55.146484C29.364168 55.038282 28.235204 54.851613 27.130859 54.539062C25.911254 54.176269 24.734979 53.698585 23.617188 53.109375L25.011719 51.25 z" fill="#FFFFFF" />
</svg>