<?xml version="1.0" encoding="utf-8"?>
<svg xmlns="http://www.w3.org/2000/svg" viewBox="0 0 48 48" width="144" height="144">
  <path d="M27.484375 4.3359375 A 1.50015 1.50015 0 0 0 27.216797 7.3144531C29.522486 7.7570056 31.661095 8.654691 33.529297 9.921875 A 1.50015 1.50015 0 1 0 35.212891 7.4394531C33.009092 5.9446371 30.489514 4.8866351 27.783203 4.3671875 A 1.50015 1.50015 0 0 0 27.484375 4.3359375 z M 20.470703 4.3378906 A 1.50015 1.50015 0 0 0 20.21875 4.3671875C17.511593 4.8857172 14.99122 5.943206 12.787109 7.4375 A 1.5005506 1.5005506 0 1 0 14.470703 9.921875C16.340592 8.654169 18.476407 7.7559234 20.78125 7.3144531 A 1.50015 1.50015 0 0 0 20.470703 4.3378906 z M 24 12C22.125 12 20.528815 12.757133 19.503906 13.910156C18.478997 15.063179 18 16.541667 18 18C18 19.458333 18.478997 20.936821 19.503906 22.089844C20.528815 23.242867 22.125 24 24 24C25.875 24 27.471185 23.242867 28.496094 22.089844C29.521003 20.936821 30 19.458333 30 18C30 16.541667 29.521003 15.063179 28.496094 13.910156C27.471185 12.757133 25.875 12 24 12 z M 8.6640625 12.111328 A 1.50015 1.50015 0 0 0 7.4394531 12.787109C5.9446371 14.990908 4.8866351 17.510486 4.3671875 20.216797 A 1.5005991 1.5005991 0 1 0 7.3144531 20.783203C7.7570056 18.477514 8.654691 16.338905 9.921875 14.470703 A 1.50015 1.50015 0 0 0 8.6640625 12.111328 z M 39.291016 12.111328 A 1.50015 1.50015 0 0 0 38.078125 14.470703C39.345831 16.340592 40.244077 18.476407 40.685547 20.78125 A 1.5002314 1.5002314 0 0 0 43.632812 20.21875C43.114283 17.511593 42.056794 14.99122 40.5625 12.787109 A 1.50015 1.50015 0 0 0 39.291016 12.111328 z M 24 15C25.124999 15 25.778816 15.367867 26.253906 15.902344C26.728997 16.436821 27 17.208333 27 18C27 18.791667 26.728997 19.563179 26.253906 20.097656C25.778816 20.632133 25.124999 21 24 21C22.875001 21 22.221184 20.632133 21.746094 20.097656C21.271003 19.563179 21 18.791667 21 18C21 17.208333 21.271003 16.436821 21.746094 15.902344C22.221184 15.367867 22.875001 15 24 15 z M 5.8300781 25.978516 A 1.50015 1.50015 0 0 0 4.3671875 27.78125C4.8857172 30.488407 5.943206 33.00878 7.4375 35.212891 A 1.5005506 1.5005506 0 1 0 9.921875 33.529297C8.654169 31.659408 7.7559234 29.523593 7.3144531 27.21875 A 1.50015 1.50015 0 0 0 5.8300781 25.978516 z M 42.125 25.980469 A 1.50015 1.50015 0 0 0 40.685547 27.216797C40.242994 29.522486 39.345309 31.661095 38.078125 33.529297 A 1.50015 1.50015 0 1 0 40.560547 35.212891C42.055363 33.009092 43.113365 30.489514 43.632812 27.783203 A 1.50015 1.50015 0 0 0 42.125 25.980469 z M 17.259766 26C15.478261 26 14 27.477066 14 29.259766L14 30.341797C14 32.32976 15.256514 34.057405 17.046875 35.199219C18.837236 36.341033 21.229275 37.001953 24 37.001953C26.770725 37.001953 29.162764 36.341033 30.953125 35.199219C32.743486 34.057405 34 32.32976 34 30.341797L34 29.259766C34 27.478261 32.522934 26 30.740234 26L17.259766 26 z M 17.259766 29L30.740234 29C30.901535 29 31 29.09927 31 29.259766L31 30.341797C31 31.053834 30.535733 31.907236 29.339844 32.669922C28.143954 33.432608 26.284275 34.001953 24 34.001953C21.715725 34.001953 19.856046 33.432608 18.660156 32.669922C17.464267 31.907236 17 31.053834 17 30.341797L17 29.259766C17 29.098465 17.09927 29 17.259766 29 z M 13.626953 37.808594 A 1.50015 1.50015 0 0 0 12.787109 40.560547C14.990908 42.055363 17.511482 43.113349 20.216797 43.632812 A 1.5005988 1.5005988 0 1 0 20.783203 40.685547C18.478518 40.243011 16.340858 39.345309 14.472656 38.078125 A 1.50015 1.50015 0 0 0 13.626953 37.808594 z M 34.328125 37.808594 A 1.50015 1.50015 0 0 0 33.527344 38.078125C31.658675 39.345626 29.523593 40.244077 27.21875 40.685547 A 1.5002314 1.5002314 0 0 0 27.78125 43.632812C30.488407 43.114283 33.00956 42.055046 35.212891 40.560547 A 1.50015 1.50015 0 0 0 34.328125 37.808594 z" fill="#333333" />
</svg>