<?xml version="1.0" encoding="utf-8"?>
<svg xmlns="http://www.w3.org/2000/svg" viewBox="0 0 48 48" width="144" height="144">
    <path d="M24 4C12.972066 4 4 12.972074 4 24C4 35.027926 12.972066 44 24 44C35.027934 44 44 35.027926 44 24C44 12.972074 35.027934 4 24 4 z M 24 7C33.406615 7 41 14.593391 41 24C41 33.406609 33.406615 41 24 41C14.593385 41 7 33.406609 7 24C7 14.593391 14.593385 7 24 7 z M 17.5 14 A 1.50015 1.50015 0 1 0 17.5 17L22.5 17C23.909008 17 25.098762 17.815375 25.65625 19L17.5 19 A 1.50015 1.50015 0 1 0 17.5 22L25.65625 22C25.098762 23.184625 23.909008 24 22.5 24L17.5 24 A 1.50015 1.50015 0 0 0 16.439453 26.560547L25.439453 35.560547 A 1.50015 1.50015 0 1 0 27.560547 33.439453L21.121094 27L22.5 27C25.555206 27 28.132677 24.854977 28.816406 22L30.5 22 A 1.50015 1.50015 0 1 0 30.5 19L28.816406 19C28.644054 18.280325 28.351911 17.606192 27.960938 17L30.5 17 A 1.50015 1.50015 0 1 0 30.5 14L22.5 14L17.5 14 z"
          fill="#FFFFFF"/>
</svg>