<?xml version="1.0" encoding="utf-8"?>
<svg xmlns="http://www.w3.org/2000/svg" viewBox="0 0 48 48" width="20" height="20">
  <path d="M20.5 3C18.203405 3 16.305701 4.7666235 16.050781 7L12.5 7C10.032499 7 8 9.0324991 8 11.5L8 38.5C8 40.967501 10.032499 43 12.5 43L35.5 43C37.967501 43 40 40.967501 40 38.5L40 11.5C40 9.0324991 37.967501 7 35.5 7L31.949219 7C31.694299 4.7666235 29.796595 3 27.5 3L20.5 3 z M 20.5 6L27.5 6C28.346499 6 29 6.6535009 29 7.5C29 8.3464991 28.346499 9 27.5 9L20.5 9C19.653501 9 19 8.3464991 19 7.5C19 6.6535009 19.653501 6 20.5 6 z M 12.5 10L16.769531 10C17.581237 11.2019 18.954719 12 20.5 12L27.5 12C29.045281 12 30.418763 11.2019 31.230469 10L35.5 10C36.346499 10 37 10.653501 37 11.5L37 38.5C37 39.346499 36.346499 40 35.5 40L12.5 40C11.653501 40 11 39.346499 11 38.5L11 11.5C11 10.653501 11.653501 10 12.5 10 z M 24 16C22.458334 16 21.112148 16.632133 20.253906 17.597656C19.395664 18.563179 19 19.791667 19 21C19 22.208333 19.395664 23.436821 20.253906 24.402344C21.112148 25.367867 22.458334 26 24 26C25.541666 26 26.887852 25.367867 27.746094 24.402344C28.604336 23.436821 29 22.208333 29 21C29 19.791667 28.604336 18.563179 27.746094 17.597656C26.887852 16.632133 25.541666 16 24 16 z M 24 19C24.791666 19 25.195482 19.242867 25.503906 19.589844C25.81233 19.936821 26 20.458333 26 21C26 21.541667 25.81233 22.063179 25.503906 22.410156C25.195482 22.757133 24.791666 23 24 23C23.208334 23 22.804518 22.757133 22.496094 22.410156C22.18767 22.063179 22 21.541667 22 21C22 20.458333 22.18767 19.936821 22.496094 19.589844C22.804518 19.242867 23.208334 19 24 19 z M 18.5 28C17.136406 28 16 29.136406 16 30.5L16 32C16 33.719216 17.236679 35.010544 18.693359 35.794922C20.15004 36.5793 21.986755 37 24 37C26.013245 37 27.84996 36.5793 29.306641 35.794922C30.763321 35.010544 32 33.719216 32 32L32 30.5C32 29.136406 30.863594 28 29.5 28L18.5 28 z M 19 31L29 31L29 32C29 32.213784 28.780585 32.671925 27.884766 33.154297C26.988946 33.636669 25.576755 34 24 34C22.423245 34 21.011054 33.636669 20.115234 33.154297C19.219415 32.671925 19 32.213784 19 32L19 31 z" fill="#FFFFFF" />
</svg>