<svg xmlns="http://www.w3.org/2000/svg" viewBox="0 0 48 48">
    <path d="M33.484375 1.984375 A 1.50015 1.50015 0 0 0 32.439453 4.5605469L39.878906 12L16.5 12 A 1.50015 1.50015 0 1 0 16.5 15L39.878906 15L32.439453 22.439453 A 1.50015 1.50015 0 1 0 34.560547 24.560547L44.560547 14.560547 A 1.50015 1.50015 0 0 0 44.560547 12.439453L34.560547 2.4394531 A 1.50015 1.50015 0 0 0 33.484375 1.984375 z M 6.5 12 A 1.5 1.5 0 0 0 6.5 15 A 1.5 1.5 0 0 0 6.5 12 z M 11.5 12 A 1.5 1.5 0 0 0 11.5 15 A 1.5 1.5 0 0 0 11.5 12 z M 14.470703 22.986328 A 1.50015 1.50015 0 0 0 13.439453 23.439453L3.4394531 33.439453 A 1.50015 1.50015 0 0 0 3.4394531 35.560547L13.439453 45.560547 A 1.50015 1.50015 0 1 0 15.560547 43.439453L8.1210938 36L31.5 36 A 1.50015 1.50015 0 1 0 31.5 33L8.1210938 33L15.560547 25.560547 A 1.50015 1.50015 0 0 0 14.470703 22.986328 z M 36.5 33 A 1.5 1.5 0 0 0 36.5 36 A 1.5 1.5 0 0 0 36.5 33 z M 41.5 33 A 1.5 1.5 0 0 0 41.5 36 A 1.5 1.5 0 0 0 41.5 33 z"
          fill="#FFFFFF"/>
</svg>