<svg xmlns="http://www.w3.org/2000/svg" viewBox="0 0 48 48">
    <path d="M3.4980469 7 A 1.50015 1.50015 0 0 0 2 8.5L2 35.5C2 38.518182 4.4818182 41 7.5 41L40.5 41C43.518182 41 46 38.518182 46 35.5L46 8.5 A 1.50015 1.50015 0 0 0 43.78125 7.1835938L39.037109 9.7714844L34.771484 7.2128906 A 1.50015 1.50015 0 0 0 33.228516 7.2128906L29 9.75L24.771484 7.2128906 A 1.50015 1.50015 0 0 0 23.228516 7.2128906L19 9.75L14.771484 7.2128906 A 1.50015 1.50015 0 0 0 13.228516 7.2128906L8.9648438 9.7714844L4.21875 7.1835938 A 1.50015 1.50015 0 0 0 3.4980469 7 z M 14 10.25L18.228516 12.787109 A 1.50015 1.50015 0 0 0 19.771484 12.787109L24 10.25L28.228516 12.787109 A 1.50015 1.50015 0 0 0 29.771484 12.787109L34 10.25L38.228516 12.787109 A 1.50015 1.50015 0 0 0 39.71875 12.816406L43 11.027344L43 35.5C43 36.881818 41.881818 38 40.5 38L7.5 38C6.1181818 38 5 36.881818 5 35.5L5 11.027344L8.28125 12.816406 A 1.50015 1.50015 0 0 0 9.7714844 12.787109L14 10.25 z M 35.28125 16.931641 A 1.250125 1.250125 0 0 0 34.050781 18.199219L34.050781 19.060547C32.313817 19.337472 30.949219 20.788722 30.949219 22.599609C30.949219 24.604738 32.594481 26.25 34.599609 26.25L36.400391 26.25C37.059365 26.25 37.550781 26.705909 37.550781 27.300781C37.550781 27.895653 36.995262 28.449219 36.400391 28.449219L33.900391 28.449219C33.463354 28.449219 33.055778 28.178179 32.884766 27.878906 A 1.2501592 1.2501592 0 0 0 30.714844 29.121094C31.343831 30.221821 32.537428 30.949219 33.900391 30.949219L34.050781 30.949219L34.050781 31.800781 A 1.250125 1.250125 0 1 0 36.550781 31.800781L36.550781 30.917969C38.483094 30.833739 40.050781 29.252618 40.050781 27.300781C40.050781 25.295653 38.341416 23.75 36.400391 23.75L34.599609 23.75C34.004738 23.75 33.449219 23.194481 33.449219 22.599609C33.449219 22.004738 34.004738 21.449219 34.599609 21.449219L35.085938 21.449219 A 1.250125 1.250125 0 0 0 35.503906 21.449219L35.900391 21.449219C36.337428 21.449219 36.74305 21.720259 36.914062 22.019531 A 1.2505225 1.2505225 0 1 0 39.085938 20.779297C38.566536 19.870345 37.617582 19.325832 36.550781 19.125L36.550781 18.199219 A 1.250125 1.250125 0 0 0 35.28125 16.931641 z M 13.5 19C11 19 9 21 9 23.5L9 26.5C9 29 11 31 13.5 31C16 31 18 29 18 26.5L18 23.5C18 21 16 19 13.5 19 z M 24.5 19C22 19 20 21 20 23.5L20 26.5C20 29 22 31 24.5 31C27 31 29 29 29 26.5L29 23.5C29 21 27 19 24.5 19 z M 13.5 21.5C14.6 21.5 15.5 22.4 15.5 23.5L15.5 26.5C15.5 27.6 14.6 28.5 13.5 28.5C12.4 28.5 11.5 27.6 11.5 26.5L11.5 23.5C11.5 22.4 12.4 21.5 13.5 21.5 z M 24.5 21.5C25.6 21.5 26.5 22.4 26.5 23.5L26.5 26.5C26.5 27.6 25.6 28.5 24.5 28.5C23.4 28.5 22.5 27.6 22.5 26.5L22.5 23.5C22.5 22.4 23.4 21.5 24.5 21.5 z"
          fill="#FFFFFF"/>
</svg>