<?xml version="1.0" encoding="utf-8"?>
<svg xmlns="http://www.w3.org/2000/svg" viewBox="0 0 48 48" width="20" height="20">
  <path d="M17.972656 3L17.972656 3.0117188C12.48194 3.043182 8 7.5120008 8 13C8 18.280936 12.181446 22.522482 17.386719 22.871094 A 1.50015 1.50015 0 0 0 17.972656 23L18.027344 23L18.027344 22.988281C23.518058 22.956819 28 18.487999 28 13C28 7.5120008 23.51806 3.0431822 18.027344 3.0117188L18.027344 3L17.972656 3 z M 18 6.0058594C21.887142 6.0213894 25 9.1290724 25 13C25 16.870928 21.887142 19.97861 18 19.994141C14.112858 19.97861 11 16.870928 11 13C11 9.1290724 14.112858 6.0213899 18 6.0058594 z M 35 24C28.925 24 24 28.925 24 35C24 41.075 28.925 46 35 46C41.075 46 46 41.075 46 35C46 28.925 41.075 24 35 24 z M 6.6132812 27C4.5612812 27 2.8925781 28.784516 2.8925781 30.978516L2.8925781 32.5C2.8925781 35.781 4.5879687 38.632344 7.6679688 40.527344C10.258969 42.122344 13.712578 43 17.392578 43C19.756578 43 22.008625 42.615641 24.015625 41.931641C23.481625 41.087641 23.044844 40.180703 22.714844 39.220703C21.040844 39.736703 19.198578 40 17.392578 40C11.853578 40 5.8925781 37.653 5.8925781 32.5L5.8925781 30.978516C5.8925781 30.447516 6.2222813 30 6.6132812 30L23 30C23.452 28.916 24.053578 27.912 24.767578 27L6.6132812 27 z M 35 27C36.93 27 38.5 28.57 38.5 30.5L38.5 32.070312C39.361 32.293312 40 33.069 40 34L40 39C40 40.105 39.105 41 38 41L32 41C30.895 41 30 40.105 30 39L30 34C30 33.069 30.639 32.293312 31.5 32.070312L31.5 30.5C31.5 28.57 33.07 27 35 27 z M 35 29C34.173 29 33.5 29.673 33.5 30.5L33.5 32L36.5 32L36.5 30.5C36.5 29.673 35.827 29 35 29 z" fill="#FFFFFF" />
</svg>