<?xml version="1.0" encoding="utf-8"?>
<svg xmlns="http://www.w3.org/2000/svg" viewBox="0 0 48 48">
    <path d="M24.042969 4 A 1.50015 1.50015 0 0 0 22.894531 4.4863281L17.394531 10.486328 A 1.50015 1.50015 0 1 0 19.605469 12.513672L24 7.71875L28.394531 12.513672 A 1.50015 1.50015 0 1 0 30.605469 10.486328L25.105469 4.4863281 A 1.50015 1.50015 0 0 0 24.042969 4 z M 2.5 13 A 1.50015 1.50015 0 1 0 2.5 16L5.5 16C5.7950452 16 6 16.204955 6 16.5L6 38.5C6 41.519774 8.4802259 44 11.5 44L36.5 44C39.519774 44 42 41.519774 42 38.5L42 16.5C42 16.204955 42.204955 16 42.5 16L45 16 A 1.50015 1.50015 0 1 0 45 13L42.5 13C40.585045 13 39 14.585045 39 16.5L39 38.5C39 39.898226 37.898226 41 36.5 41L11.5 41C10.101774 41 9 39.898226 9 38.5L9 16.5C9 14.585045 7.4149548 13 5.5 13L2.5 13 z M 24 17C18.494917 17 14 21.494921 14 27C14 32.505079 18.494917 37 24 37C29.505083 37 34 32.505079 34 27C34 21.494921 29.505083 17 24 17 z M 24 20C27.883764 20 31 23.116238 31 27C31 30.883762 27.883764 34 24 34C20.116236 34 17 30.883762 17 27C17 23.116238 20.116236 20 24 20 z M 22.75 23C22.273 23 21.862531 23.336687 21.769531 23.804688L21.269531 26.304688C21.210531 26.598687 21.286562 26.903766 21.476562 27.134766C21.666562 27.366766 21.95 27.5 22.25 27.5L24.25 27.5C24.664 27.5 25 27.836 25 28.25C25 28.765 24.481 29 24 29C23.115 29 22.583922 28.685156 22.544922 28.660156C22.085922 28.363156 21.472969 28.489313 21.167969 28.945312C20.861969 29.405313 20.986313 30.026031 21.445312 30.332031C21.548313 30.400031 22.491 31 24 31C25.71 31 27 29.818 27 28.25C27 26.733 25.767 25.5 24.25 25.5L23.470703 25.5L23.570312 25L25.5 25C26.052 25 26.5 24.552 26.5 24C26.5 23.448 26.052 23 25.5 23L22.75 23 z"
          fill="#FFFFFF"/>
</svg>